<?xml version="1.0" encoding="UTF-8"?>
<svg version="1.1" viewBox="0 0 1600 1600" width="1280" height="1280" xmlns="http://www.w3.org/2000/svg">
<path transform="translate(0)" d="m0 0h1600v1600h-1600z" fill="#FDFDFD"/>
<path transform="translate(922,411)" d="m0 0h133l113 1h124l-2 4-13 12-14 11-14 12-14 11-15 13-10 8-14 12-11 9-16 13-14 11-22 18-28 24-11 9-13 11-10 8-22 18-26 22-11 9-14 12-11 9-14 11-12 10-14 11-16 13-13 10-25 20-9 8-2 5 52-1h199l47 1 4 2-2 5-7 7-14 8-34 16-36 18-19 9-7 5v3l12 6 18 6 32 9 4 2-4 4-21 10-30 13-21 9-31 13-36 15-39 16-25 11-41 17-19 8-88 37-29 12-28 12-19 8-11 5-36 15-30 13-134 56-68 29-30 13-44 18-30 11-29 11-15 6-3-1 12-17 13-15 9-11 12-13 9-11 11-12 9-11 9-10 9-11 16-17 9-11 11-12 9-11 14-15 7-8 11-12 9-11 10-11 9-11 12-13 7-8 14-15 10-11 7-8 11-12 7-8 14-15 7-8 12-14 22-26 36-42 10-11 7-8 19-19 2-5h-57l-65-1-11-1 2-4 38-38 7-8 80-80h2v-2l7-6 70-70 8-7 63-63h2l2-4h2l2-4h2v-2h2v-2l8-7 15-14 10-9 15-14 7-7 8-4 4-1z" fill="#1F6FFD"/>
<path transform="translate(1198,131)" d="m0 0h392l2 2-9 9-10 8-10 9-11 9-9 8-9 7-16 13-11 9-14 12-13 11-11 9-14 12-13 11-10 8-16 13-14 12-14 11-12 11-12 9-10 8-9 4-13 2-15 1h-572l-209-1-4-2v-202l1-1 48-1z" fill="#1B1B1B"/>
<path transform="translate(327,1260)" d="m0 0h58l650 1 3 1v61l-1 144-2 1h-1035l1-3 8-5 9-9 8-7 13-12 11-11 8-7 12-11 8-7 13-12 12-11 4-2v-2l8-7 15-14 10-9 17-16 13-12 12-11 15-14 15-13 7-7 8-4 3-1z" fill="#1B1B1B"/>
<path transform="translate(1e3 904)" d="m0 0 6 1 4-1-5 5-46 19-21 9-33 14-34 14-40 17-72 30-33 14-26 11-11 5-36 15-30 13-12 5h-8l-4-4 8-5h2v-2l23-10 20-9 24-10 22-10 13-5 16-7 15-7 25-12 23-9 12-5 16-8 12-5 11-5 13-4 45-15 8-4 19-8 5-2 19-8 13-6 21-6h8l4-4z" fill="#1160FC"/>
<path transform="translate(763,528)" d="m0 0 1 2h-2l-2 4-16 17-14 15-11 12h-2l-2 4-28 28-3 1-1 3-7 6-5 5-9 8-8 7-7 6h-2v2h-2v2h-2l-2 4-4 4h-2l-2 4h-2l-2 4h-2l-2 4h-2l-2 4h-2l-2 4-8 9-2 3h-2v2h-2v2h-2l-2 4-7 8-6 5-5 7-5 5-3 4h-2l-3 6h-2l-2 4-2 3h-2l-2 4-3 7-9 1-4 2-1-3 3-5 30-30 7-8 80-80h2v-2l7-6 70-70 8-7 14-14z" fill="#1968FD"/>
<path transform="translate(1225,414)" d="m0 0h62v3l-9 10-11 9-9 7-8 1-5 1v-2l3-2 1-3h2l2-5h2l2-8-3-1-17-1-20-2-8-3 3-3z" fill="#105FFC"/>
<path transform="translate(621,812)" d="m0 0 1 2-5 8-11 11-8 12-3 5h-2l-2 5h-2v2h-2l-2 4-2 3h-2l-2 5-6 8-5 6-4 4h-2l-2 4-5 7-5 5-3 4h-2l-2 4h-2l-2 4h-2v2h-2v2h-2v2h-2v2l-4 4h-2v2l-6 3-1-4 11-12 7-8 14-15 7-8 12-14 22-26 24-28z" fill="#1262FC"/>
<path transform="translate(884,413)" d="m0 0h14l-3 2-8 4-4 5-7 4h-2v2l-11 9-19 19-11 9-10 8h-2v2l-4 1v2h-2v2h-2v2h-2v2h-2v2l-7 4-4 5h-2l-2 4-8 7-2-1 26-26 3-5h2l2-4h2v-2h2v-2l8-7 15-14 10-9 15-14 7-7z" fill="#1160FC"/>
<path transform="translate(1110,848)" d="m0 0 8 1 12 2v3l-17 9-30 13-13 4-14 6-3-1 2-3h2l2-2 2 1v-2l5-1 5-5 14-7 7-3 6-4h2v-2l5-4z" fill="#1160FC"/>
<path transform="translate(763,528)" d="m0 0 1 2h-2l-2 4-16 17-14 15-11 12h-2l-2 4-28 28-3 1-1 3-7 6-5 5-9 8-8 7-7 6-2-1 94-94 7-8 14-14z" fill="#105FFC"/>
<path transform="translate(616,674)" d="m0 0v3l-9 10-2 3h-2v2h-2v2h-2l-2 4-7 8-6 5-5 7-5 5-3 4h-2l-3 6h-2l-2 4-2 3h-2l-2 4-3 7-9 1-4 2v-4z" fill="#105FFC"/>
<path transform="translate(315,1190)" d="m0 0 6 1 2 2-3 3-32 12-11 2 1-5 4-6h9l6-3h3v-2h2v-2z" fill="#1160FC"/>
<path transform="translate(621,812)" d="m0 0 1 2-5 8-11 11-8 7-5 4 2-4 9-10 9-11z" fill="#1565FC"/>
<path transform="translate(833,457)" d="m0 0 2 1-23 23-1-3 4-2 2-4h2v-2h2v-2l8-7zm-23 24m-1 1m-1 1m-1 1m-1 1m-1 1m-1 1m-1 1m-1 1m-1 1 1 2-4 5h-2l-2 4-8 7-2-1z" fill="#1564FC"/>
<path transform="translate(1280,412)" d="m0 0h12l-2 4-3 3-2-1 2-3h-61v-2z" fill="#2070FE"/>
<path transform="translate(496,954)" d="m0 0 1 2-2 3h-2v2l-5 5h-2v2l-5 3 1-4 9-9z" fill="#1665FC"/>
<path transform="translate(509,940)" d="m0 0 3 1-3 4h-2v2h-2l-1 3-4 1 1-4z" fill="#1261FC"/>
<path transform="translate(380,1086)" d="m0 0v3l-5 6-6 5-3 4-2-1 5-7 8-7z" fill="#1160FC"/>
<path transform="translate(1239,447)" d="m0 0h6v3h-2v2l-5 3z" fill="#105FFC"/>
<path transform="translate(1047,887)" d="m0 0 2 2-12 5-2-1 5-4z" fill="#105FFC"/>
<path transform="translate(366,1099)" d="m0 0v3l-4 6-4 3 1-4z" fill="#1868FD"/>
</svg>
